<svg width="69" height="69" viewBox="0 0 69 69" fill="none" xmlns="http://www.w3.org/2000/svg">
<g filter="url(#filter0_i)">
<path d="M52.3505 5.97225C36.548 -3.95597 15.6523 0.880359 5.66438 16.7777C-4.3235 32.6751 0.387544 53.5995 16.19 63.5277C31.9924 73.4559 52.8882 68.6196 62.876 52.7222C72.8639 36.8248 68.1529 15.9005 52.3505 5.97225ZM22.5179 24.7769C23.1959 23.6977 24.2667 23.0433 25.435 22.8225L22.5373 19.4968C21.7391 18.5907 21.8416 17.1985 22.7539 16.4122C23.6619 15.607 25.0312 15.7066 25.8293 16.6127L33.3073 25.1951C34.1055 26.1012 34.003 27.4934 33.0907 28.2797C32.3455 28.9282 31.2907 28.9938 30.4948 28.4938C30.4372 28.4576 30.3825 28.3909 30.3133 28.3474C30.1972 28.7114 30.123 29.0856 29.9116 29.4221C28.6212 31.476 25.9292 32.0991 23.8876 30.8164C21.846 29.5337 21.2275 26.8308 22.5179 24.7769ZM30.6542 54.8449C29.8826 48.9545 23.3771 44.8673 17.7239 46.7211C14.9784 47.6342 13.6239 43.4654 16.381 42.5596C20.4376 41.224 24.8348 41.7532 28.4336 44.0143C32.0324 46.2753 34.4175 50.0072 34.9747 54.2415C35.3636 57.1563 31.0261 57.6842 30.6542 54.8449ZM53.1155 38.7082L48.8618 37.5409C49.1656 38.6704 49.045 39.9379 48.367 41.0171C47.0766 43.071 44.3846 43.6941 42.343 42.4114C40.3013 41.1287 39.6944 38.433 40.9848 36.3791C41.1962 36.0426 41.4969 35.7945 41.7787 35.5508C41.7022 35.5189 41.6373 35.4943 41.5681 35.4508C40.7722 34.9508 40.3736 33.972 40.6344 33.0192C40.9657 31.8517 42.1682 31.1668 43.3194 31.4854L54.2968 34.498C55.4479 34.8166 56.1361 36.0258 55.8121 37.1817C55.4807 38.3492 54.2782 39.0341 53.1155 38.7082Z" fill="#D68C8C"/>
</g>
<defs>
<filter id="filter0_i" x="0.423096" y="0.814682" width="70.6941" height="69.8706" filterUnits="userSpaceOnUse" color-interpolation-filters="sRGB">
<feFlood flood-opacity="0" result="BackgroundImageFix"/>
<feBlend mode="normal" in="SourceGraphic" in2="BackgroundImageFix" result="shape"/>
<feColorMatrix in="SourceAlpha" type="matrix" values="0 0 0 0 0 0 0 0 0 0 0 0 0 0 0 0 0 0 127 0" result="hardAlpha"/>
<feOffset dx="3" dy="2"/>
<feGaussianBlur stdDeviation="2.5"/>
<feComposite in2="hardAlpha" operator="arithmetic" k2="-1" k3="1"/>
<feColorMatrix type="matrix" values="0 0 0 0 0 0 0 0 0 0 0 0 0 0 0 0 0 0 0.25 0"/>
<feBlend mode="normal" in2="shape" result="effect1_innerShadow"/>
</filter>
</defs>
</svg>
